<svg width="20" height="20" viewBox="0 0 20 20" fill="none" xmlns="http://www.w3.org/2000/svg">
<path d="M17.2558 2.74408C17.5812 3.06951 17.5812 3.59715 17.2558 3.92259L3.92243 17.2559C3.59699 17.5814 3.06935 17.5814 2.74391 17.2559C2.41848 16.9305 2.41848 16.4028 2.74391 16.0774L16.0772 2.74408C16.4027 2.41864 16.9303 2.41864 17.2558 2.74408Z" fill="#667185"/>
<path d="M13.1661 4.4767C12.2275 4.03469 11.1692 3.75 9.99982 3.75C7.54641 3.75 5.58214 5.00308 4.18616 6.33307C2.78698 7.66611 1.87909 9.14973 1.5197 9.7915C1.28418 10.2121 1.25613 10.7143 1.44946 11.1603C1.58447 11.4718 1.81407 11.9544 2.15249 12.5143C2.39053 12.9082 2.90282 13.0346 3.29671 12.7965C3.69061 12.5585 3.81695 12.0462 3.57891 11.6523C3.30672 11.2019 3.11784 10.8124 3.00328 10.5537C3.34141 9.95778 4.14221 8.67693 5.33581 7.53975C6.56871 6.36513 8.14153 5.41667 9.99982 5.41667C10.6682 5.41667 11.2997 5.53937 11.8916 5.75116L13.1661 4.4767Z" fill="#667185"/>
<path d="M14.7419 7.61491C15.8924 8.73288 16.6657 9.97087 16.9964 10.5537C16.8818 10.8124 16.6929 11.2019 16.4207 11.6523C16.1827 12.0462 16.309 12.5585 16.7029 12.7965C17.0968 13.0346 17.6091 12.9082 17.8472 12.5143C18.1856 11.9544 18.4152 11.4718 18.5502 11.1603C18.7435 10.7143 18.7155 10.2121 18.4799 9.7915C18.1298 9.16625 17.259 7.74193 15.9206 6.43629L14.7419 7.61491Z" fill="#667185"/>
<path d="M9.99984 6.66667C10.3027 6.66667 10.598 6.69898 10.8825 6.76034L9.16762 8.47519C8.45638 8.7262 7.8927 9.28987 7.6417 10.0011L5.92684 11.716C5.86548 11.4315 5.83317 11.1362 5.83317 10.8333C5.83317 8.53215 7.69865 6.66667 9.99984 6.66667Z" fill="#667185"/>
<path d="M9.99984 13.3333C9.70744 13.3333 9.42677 13.2831 9.16597 13.1909L7.9151 14.4418C8.52828 14.7968 9.24033 15 9.99984 15C12.301 15 14.1665 13.1345 14.1665 10.8333C14.1665 10.0738 13.9633 9.36177 13.6083 8.74859L12.3574 9.99947C12.4496 10.2603 12.4998 10.5409 12.4998 10.8333C12.4998 12.214 11.3805 13.3333 9.99984 13.3333Z" fill="#667185"/>
</svg>
