<svg width="25" height="24" viewBox="0 0 25 24" fill="none" xmlns="http://www.w3.org/2000/svg">
<path d="M4.79464 13.9828C5.08029 14.4555 4.92868 15.0702 4.45601 15.3559C3.98333 15.6415 3.36859 15.4899 3.08294 15.0172C2.67684 14.3452 2.40131 13.7662 2.2393 13.3924C2.00731 12.8571 2.04097 12.2545 2.32359 11.7498C2.75486 10.9797 3.84432 9.19934 5.52335 7.59968C7.19852 6.00369 9.55564 4.5 12.4997 4.5C15.4438 4.5 17.801 6.00369 19.4761 7.59968C21.1552 9.19933 22.2446 10.9797 22.6759 11.7498C22.9585 12.2545 22.9922 12.8571 22.7602 13.3924C22.5982 13.7662 22.3226 14.3452 21.9165 15.0172C21.6309 15.4899 21.0161 15.6415 20.5435 15.3559C20.0708 15.0702 19.9192 14.4555 20.2048 13.9828C20.5315 13.4423 20.7581 12.9749 20.8956 12.6644C20.4898 11.9493 19.5289 10.4123 18.0966 9.0477C16.6171 7.63816 14.7297 6.5 12.4997 6.5C10.2698 6.5 8.3824 7.63816 6.90292 9.0477C5.4706 10.4123 4.50964 11.9493 4.10389 12.6644C4.24137 12.9749 4.46802 13.4423 4.79464 13.9828Z" fill="black"/>
<path fill-rule="evenodd" clip-rule="evenodd" d="M12.4997 8C9.73831 8 7.49974 10.2386 7.49974 13C7.49974 15.7614 9.73831 18 12.4997 18C15.2612 18 17.4997 15.7614 17.4997 13C17.4997 10.2386 15.2612 8 12.4997 8ZM9.49974 13C9.49974 11.3431 10.8429 10 12.4997 10C14.1566 10 15.4997 11.3431 15.4997 13C15.4997 14.6569 14.1566 16 12.4997 16C10.8429 16 9.49974 14.6569 9.49974 13Z" fill="black"/>
</svg>
